<?xml version="1.0" encoding="utf-8"?>
<!-- Generator: Adobe Illustrator 21.0.0, SVG Export Plug-In . SVG Version: 6.00 Build 0)  -->
<svg version="1.1" id="Capa_1" xmlns="http://www.w3.org/2000/svg" xmlns:xlink="http://www.w3.org/1999/xlink" x="0px" y="0px"
	 viewBox="0 0 500 500" style="enable-background:new 0 0 500 500;" xml:space="preserve">
<style type="text/css">
	.st0{fill:#00AEFF;}
	.st1{fill:#3294BF;}
	.st2{fill:none;stroke:#B7B7B7;stroke-miterlimit:10;}
	.st3{fill:none;stroke:#DDBB6F;stroke-width:3;stroke-linecap:round;stroke-miterlimit:10;}
	.st4{opacity:0.2;enable-background:new    ;}
	.st5{fill:#FFFFFF;}
	.st6{fill:#EAEAEA;}
	.st7{fill:#F4F4F4;}
	.st8{fill:#D63A3A;}
	.st9{fill:#FFB600;}
	.st10{fill:#6CCE20;}
	.st11{fill:none;stroke:#7F7F7F;stroke-width:0.5;stroke-miterlimit:10;}
	.st12{fill:#7F7F7F;}
	.st13{fill:#ED9700;}
	.st14{fill:#262626;}
	.st15{font-family:'ArialMT';}
	.st16{font-size:38.095px;}
	.st17{fill:#FF6700;}
	.st18{fill:#DB5800;}
	.st19{fill:#F2F2F2;}
	.st20{fill:#B7B7B7;}
	.st21{fill:#444444;}
</style>
<g id="BACKGROUND">
	<rect class="st0" width="500" height="500"/>
	<path class="st1" d="M95.4,65.3l6.9,0.9c0.3-1.7,0.2-3.3,0.4-5c-0.1-1.7-0.1-3.4-0.4-5.1L95.4,57c-0.1-0.8-0.2-1.6-0.4-2.4
		l-0.6-2.4l6.7-2c-0.2-0.8-0.5-1.6-0.8-2.4c-0.3-0.8-0.5-1.6-0.9-2.3C98.7,44,97.9,42.4,97,41l-4.7,2.9c-0.4,0.2-0.8,0.5-1.3,0.7
		c-0.4-0.7-0.8-1.4-1.3-2s-0.9-1.4-1.5-1.9l5.3-4.5c-1.1-1.3-2.2-2.5-3.5-3.6c-1.2-1.2-2.6-2.1-4-3.2l-4,5.7
		c-1.4-0.9-2.8-1.8-4.3-2.4l3-6.3c-1.5-0.8-3.1-1.3-4.7-1.9c-0.8-0.3-1.6-0.5-2.4-0.7s-1.6-0.5-2.5-0.6L69.8,30l-2.4-0.4l-2.4,0
		l0.2-6.9c-1.7-0.1-3.4,0.1-5,0.2c-1.7,0.3-3.4,0.4-5,0.9l1.6,6.8c-0.8,0.2-1.6,0.4-2.4,0.7L52.1,32l-2.7-6.4
		c-0.8,0.3-1.5,0.7-2.3,1.1s-1.5,0.7-2.2,1.2l-2.2,1.3c-0.7,0.5-1.4,1-2,1.5l4.2,5.5c-0.7,0.5-1.3,1-1.9,1.6
		c-0.6,0.6-1.2,1.1-1.8,1.7l-5-4.8l-1.7,1.9c-0.5,0.7-1,1.3-1.5,2c-1.1,1.3-1.8,2.8-2.7,4.3l6.1,3.3c-0.7,1.5-1.5,2.9-2,4.5
		l-6.5-2.3c-0.6,1.6-1,3.2-1.4,4.8c-0.3,1.7-0.6,3.3-0.7,5l6.9,0.5l-0.1,2.5l0.1,2.5l-6.9,0.5c0.1,1.7,0.4,3.3,0.7,5
		c0.4,1.6,0.8,3.3,1.4,4.9l6.5-2.3c0,0,0,0,0.1,0c0.5,1.6,1.3,3,2,4.5l-6.1,3.3c0.9,1.4,1.7,2.9,2.7,4.2c0.5,0.7,1,1.4,1.5,2
		l1.7,1.9l5-4.8c0.5,0.6,1.2,1.2,1.8,1.7c0.6,0.6,1.2,1.1,1.9,1.6l-4.2,5.5c0.7,0.5,1.3,1,2,1.5l2.2,1.3c0.7,0.5,1.5,0.8,2.2,1.2
		c0.8,0.4,1.5,0.8,2.3,1.1l2.7-6.4l2.3,0.8c0.8,0.3,1.6,0.4,2.4,0.6l-1.6,6.8l1.2,0.3l1.2,0.2l2.5,0.4c1.7,0.1,3.4,0.3,5.1,0.2
		l-0.3-7l2.5-0.1l2.4-0.4l1.3,6.8c1.7-0.3,3.3-0.7,4.9-1.2c1.6-0.6,3.2-1.1,4.7-1.9l-3-6.3c1.4-0.6,2.7-1.4,3.9-2.2
		c0.4,0.5,0.9,1,1.4,1.4l2.8,4.1c1.3-1,2.7-2,3.9-3.1c1.3-1.1,2.4-2.4,3.5-3.6L88,81.7c0.6-0.6,1-1.3,1.5-1.9s1-1.3,1.4-2l5.9,3.6
		c0.9-1.4,1.6-2.9,2.4-4.5c0.4-0.8,0.6-1.6,0.9-2.4s0.6-1.6,0.8-2.4l-6.7-2l0.6-2.4C95.2,66.9,95.3,66.1,95.4,65.3z M100.8,64
		L100.8,64L100.8,64L100.8,64z M100.8,58.2v0.4c-0.1-0.1-0.2-0.2-0.3-0.4H100.8z M28.9,50.7L28.9,50.7L28.9,50.7L28.9,50.7z
		 M78.1,94.9l0.1,0.2L78,95.2C78.1,95.1,78.1,95,78.1,94.9z M57.7,25c-0.1,0-0.2,0.1-0.2,0.1V25H57.7z M63.2,97.9L63.2,97.9
		C63.2,97.9,63.2,97.8,63.2,97.9L63.2,97.9z M64.1,82.2c-11.6,0-21-9.4-21-21s9.4-21,21-21s21,9.4,21,21S75.8,82.2,64.1,82.2z"/>
	<path class="st1" d="M138.7,102.2l4.2,0.5c0.2-1,0.1-2,0.2-3.1c-0.1-1,0-2.1-0.2-3.1l-4.2,0.6c-0.1-0.5-0.1-1-0.2-1.5l-0.4-1.5
		l4.1-1.2c-0.1-0.5-0.3-1-0.5-1.5s-0.3-1-0.6-1.4c-0.4-0.9-0.9-1.9-1.5-2.7l-2.9,1.8c-0.3,0.1-0.5,0.3-0.8,0.4
		c-0.2-0.4-0.5-0.8-0.8-1.2c-0.3-0.4-0.6-0.8-0.9-1.2l3.2-2.8c-0.7-0.8-1.4-1.5-2.1-2.2c-0.7-0.7-1.6-1.3-2.4-1.9l-2.4,3.5
		c-0.8-0.5-1.7-1.1-2.6-1.5l1.8-3.8c-0.9-0.5-1.9-0.8-2.8-1.2c-0.5-0.2-1-0.3-1.5-0.4s-1-0.3-1.5-0.3l-0.8,4.2l-1.5-0.2l-1.5-0.1
		l0.1-4.2c-1-0.1-2,0.1-3.1,0.1c-1,0.2-2.1,0.2-3,0.5l1,4.1c-0.5,0.1-1,0.2-1.4,0.4l-1.4,0.5l-1.6-3.9c-0.5,0.2-0.9,0.4-1.4,0.7
		c-0.5,0.2-0.9,0.4-1.4,0.7l-1.3,0.8c-0.4,0.3-0.8,0.6-1.2,0.9l2.6,3.4c-0.4,0.3-0.8,0.6-1.2,1c-0.4,0.3-0.8,0.7-1.1,1l-3.1-2.9
		l-1,1.1c-0.3,0.4-0.6,0.8-0.9,1.2c-0.7,0.8-1.1,1.7-1.7,2.6l3.7,2c-0.4,0.9-0.9,1.8-1.2,2.7l-4-1.4c-0.4,1-0.6,2-0.8,3
		c-0.2,1-0.4,2-0.4,3.1l4.2,0.3l-0.1,1.5l0.1,1.5l-4.2,0.3c0.1,1,0.3,2,0.4,3c0.3,1,0.5,2,0.9,3l4-1.4l0,0c0.3,0.9,0.8,1.8,1.2,2.7
		l-3.7,2c0.5,0.9,1,1.8,1.7,2.6c0.3,0.4,0.6,0.8,0.9,1.2l1,1.1l3.1-2.9c0.3,0.4,0.7,0.7,1.1,1s0.7,0.7,1.2,1l-2.6,3.4
		c0.4,0.3,0.8,0.6,1.2,0.9l1.3,0.8c0.4,0.3,0.9,0.5,1.4,0.7s0.9,0.5,1.4,0.7l1.6-3.9l1.4,0.5c0.5,0.2,1,0.3,1.4,0.4l-1,4.1l0.7,0.2
		l0.8,0.1l1.5,0.2c1,0,2.1,0.2,3.1,0.1l-0.1-4.2l1.5-0.1l1.5-0.2l0.8,4.2c1-0.2,2-0.5,3-0.7c1-0.4,2-0.7,2.9-1.2l-1.8-3.8
		c0.8-0.4,1.6-0.9,2.4-1.4c0.3,0.3,0.6,0.6,0.9,0.8l1.7,2.5c0.8-0.6,1.7-1.2,2.4-1.9c0.8-0.7,1.5-1.4,2.2-2.2l-3.2-2.7
		c0.3-0.4,0.6-0.8,0.9-1.2c0.3-0.4,0.6-0.8,0.8-1.2l3.6,2.2c0.6-0.9,1-1.8,1.4-2.7c0.2-0.5,0.4-1,0.6-1.4c0.2-0.5,0.4-1,0.5-1.5
		l-4.1-1.2l0.4-1.5C138.5,103.2,138.6,102.7,138.7,102.2z M141.9,101.4L141.9,101.4L141.9,101.4L141.9,101.4z M141.9,97.9v0.2
		c-0.1-0.1-0.1-0.2-0.2-0.2H141.9z M98.1,93.3L98.1,93.3L98.1,93.3L98.1,93.3z M128.2,120.2L128.2,120.2l-0.1,0.1
		C128.1,120.3,128.1,120.3,128.2,120.2z M115.7,77.6C115.7,77.6,115.6,77.6,115.7,77.6L115.7,77.6L115.7,77.6z M119,122L119,122
		L119,122L119,122z M119.6,112.5c-7.1,0-12.8-5.7-12.8-12.8s5.7-12.8,12.8-12.8s12.8,5.7,12.8,12.8
		C132.4,106.7,126.7,112.5,119.6,112.5z"/>
	<path class="st1" d="M453.3,71.3l6.1,0.8c0.3-1.5,0.2-3,0.3-4.5c-0.1-1.5-0.1-3-0.3-4.5l-6.1,0.8c-0.1-0.7-0.2-1.5-0.4-2.2
		l-0.5-2.1l5.9-1.8c-0.2-0.7-0.5-1.4-0.7-2.1c-0.3-0.7-0.5-1.4-0.8-2.1c-0.6-1.4-1.3-2.7-2.1-4l-4.2,2.6c-0.4,0.2-0.8,0.4-1.1,0.6
		c-0.4-0.6-0.7-1.2-1.2-1.8s-0.8-1.2-1.4-1.7l4.7-4c-1-1.1-2-2.2-3.1-3.2c-1.1-1.1-2.3-1.9-3.5-2.8l-3.5,5.1
		c-1.2-0.8-2.5-1.6-3.8-2.2l2.7-5.6c-1.3-0.7-2.8-1.2-4.2-1.7c-0.7-0.3-1.5-0.4-2.2-0.6c-0.7-0.2-1.5-0.4-2.2-0.5l-1.1,6.1l-2.2-0.3
		l-2.2-0.1l0.2-6.2c-1.5-0.1-3,0.1-4.5,0.1c-1.5,0.3-3,0.4-4.5,0.8l1.4,6c-0.7,0.2-1.4,0.3-2.1,0.6l-2.1,0.8l-2.4-5.7
		c-0.7,0.3-1.4,0.6-2,1c-0.7,0.3-1.4,0.6-2,1.1l-1.9,1.2c-0.6,0.4-1.2,0.9-1.8,1.3l3.8,4.9c-0.6,0.4-1.1,0.9-1.7,1.4
		c-0.5,0.5-1.1,1-1.6,1.5l-4.5-4.3l-1.5,1.7c-0.5,0.6-0.9,1.2-1.4,1.8c-1,1.2-1.6,2.5-2.4,3.8l5.4,3c-0.6,1.3-1.3,2.6-1.8,4
		l-5.8-2.1c-0.6,1.4-0.9,2.9-1.2,4.3c-0.2,1.5-0.5,3-0.6,4.5l6.2,0.5l-0.1,2.2l0.1,2.2l-6.2,0.5c0.1,1.5,0.4,3,0.6,4.4
		c0.4,1.5,0.7,2.9,1.3,4.4l5.8-2.1c0,0,0,0,0.1,0c0.4,1.4,1.1,2.7,1.7,4l-5.4,3c0.8,1.3,1.5,2.6,2.4,3.8c0.5,0.6,0.9,1.2,1.4,1.8
		l1.5,1.7l4.5-4.3c0.5,0.6,1,1,1.6,1.5c0.5,0.5,1.1,1,1.7,1.4l-3.8,4.9c0.6,0.4,1.2,0.9,1.8,1.3l1.9,1.2c0.6,0.4,1.3,0.7,2,1.1
		c0.7,0.3,1.4,0.7,2.1,1l2.4-5.7l2.1,0.8c0.7,0.2,1.4,0.4,2.1,0.6l-1.4,6l1.1,0.3l1.1,0.2l2.2,0.3c1.5,0.1,3,0.2,4.5,0.1l-0.2-6.2
		l2.2-0.1l2.2-0.3l1.1,6.1c1.5-0.3,2.9-0.7,4.4-1.1c1.4-0.5,2.9-1,4.2-1.7l-2.7-5.6c1.2-0.5,2.4-1.3,3.5-2c0.4,0.4,0.8,0.9,1.3,1.2
		l2.5,3.7c1.2-0.9,2.4-1.8,3.5-2.8c1.2-1,2.2-2.1,3.2-3.2l-4.7-4c0.5-0.5,0.9-1.2,1.3-1.7c0.5-0.6,0.8-1.2,1.2-1.8l5.3,3.2
		c0.8-1.3,1.5-2.6,2.1-4c0.4-0.7,0.6-1.4,0.8-2.1c0.2-0.7,0.6-1.4,0.7-2.1l-5.9-1.8l0.5-2.1C453.1,72.7,453.2,72,453.3,71.3z
		 M458.1,70.2L458.1,70.2L458.1,70.2L458.1,70.2z M458.1,65v0.3c-0.1-0.1-0.2-0.2-0.3-0.3H458.1z M394,58.3L394,58.3L394,58.3
		L394,58.3z M437.9,97.7l0.1,0.2l-0.1,0.1C437.9,97.9,437.9,97.8,437.9,97.7z M419.7,35.4c-0.1,0-0.1,0.1-0.2,0.1v-0.1H419.7z
		 M424.6,100.4L424.6,100.4C424.6,100.3,424.6,100.3,424.6,100.4L424.6,100.4z M425.4,86.4c-10.4,0-18.8-8.4-18.8-18.8
		s8.4-18.8,18.8-18.8s18.8,8.4,18.8,18.8C444.2,78,435.8,86.4,425.4,86.4z"/>
	<path class="st1" d="M466.7,445.6l4.5,0.6c0.2-1.1,0.2-2.2,0.2-3.3c-0.1-1.1,0-2.2-0.2-3.3l-4.5,0.6c-0.1-0.5-0.1-1.1-0.3-1.6
		L466,437l4.3-1.3c-0.1-0.5-0.4-1-0.5-1.6c-0.2-0.5-0.4-1-0.6-1.5c-0.5-1-0.9-2-1.6-2.9l-3.1,1.9c-0.3,0.1-0.6,0.3-0.8,0.5
		c-0.3-0.5-0.5-0.9-0.9-1.3c-0.3-0.4-0.6-0.9-1-1.3l3.4-2.9c-0.7-0.8-1.5-1.6-2.3-2.3c-0.8-0.8-1.7-1.4-2.6-2.1l-2.6,3.7
		c-0.9-0.6-1.8-1.2-2.8-1.6l2-4.1c-1-0.5-2-0.9-3-1.2c-0.5-0.2-1.1-0.3-1.6-0.4s-1.1-0.3-1.6-0.4l-0.8,4.5l-1.6-0.2l-1.6-0.1
		l0.1-4.5c-1.1-0.1-2.2,0.1-3.3,0.1c-1.1,0.2-2.2,0.3-3.3,0.6l1.1,4.4c-0.5,0.1-1,0.2-1.5,0.4l-1.5,0.6l-1.7-4.2
		c-0.5,0.2-1,0.5-1.5,0.7s-1,0.5-1.5,0.8l-1.4,0.9c-0.5,0.3-0.9,0.7-1.3,1l2.8,3.6c-0.4,0.3-0.8,0.7-1.2,1c-0.4,0.4-0.8,0.7-1.2,1.1
		l-3.3-3.1l-1.1,1.2c-0.3,0.4-0.7,0.9-1,1.3c-0.7,0.9-1.2,1.9-1.8,2.8l4,2.2c-0.5,1-1,1.9-1.3,2.9l-4.3-1.5c-0.4,1-0.6,2.1-0.9,3.2
		c-0.2,1.1-0.4,2.2-0.5,3.3l4.5,0.3l-0.1,1.6l0.1,1.6l-4.5,0.4c0.1,1.1,0.3,2.2,0.5,3.3c0.3,1.1,0.5,2.2,0.9,3.2l4.2-1.5l0,0
		c0.3,1,0.8,2,1.3,2.9l-4,2.2c0.6,0.9,1.1,1.9,1.8,2.8c0.3,0.4,0.7,0.9,1,1.3l1.1,1.2l3.3-3.1c0.3,0.4,0.8,0.7,1.2,1.1
		c0.4,0.4,0.8,0.7,1.2,1l-2.8,3.6c0.4,0.3,0.9,0.7,1.3,1l1.4,0.9c0.5,0.3,1,0.5,1.5,0.8c0.5,0.2,1,0.5,1.5,0.7l1.7-4.2l1.5,0.6
		c0.5,0.2,1,0.3,1.5,0.4l-1.1,4.4l0.8,0.2l0.8,0.1l1.6,0.2c1.1,0,2.2,0.2,3.3,0.1l-0.1-4.5l1.6-0.1l1.6-0.2l0.8,4.5
		c1.1-0.2,2.1-0.5,3.2-0.8c1-0.4,2.1-0.7,3.1-1.2l-2-4.1c0.9-0.4,1.7-0.9,2.6-1.5c0.3,0.3,0.6,0.6,0.9,0.9l1.9,2.7
		c0.9-0.7,1.8-1.3,2.6-2c0.8-0.7,1.6-1.5,2.3-2.4l-3.4-2.9c0.4-0.4,0.7-0.8,1-1.3c0.3-0.4,0.6-0.9,0.9-1.3l3.9,2.4
		c0.6-0.9,1.1-1.9,1.5-2.9c0.3-0.5,0.4-1,0.6-1.5s0.4-1,0.5-1.6l-4.3-1.3l0.4-1.6C466.5,446.7,466.6,446.2,466.7,445.6z
		 M470.1,444.8L470.1,444.8L470.1,444.8L470.1,444.8z M470.1,441.1v0.2c-0.1-0.1-0.1-0.2-0.2-0.2H470.1z M423.3,436.2L423.3,436.2
		L423.3,436.2L423.3,436.2z M455.4,465l0.1,0.1h-0.1V465z M442.1,419.4c-0.1,0-0.1,0-0.2,0.1l0,0L442.1,419.4z M445.7,466.9
		L445.7,466.9C445.6,466.9,445.7,466.9,445.7,466.9L445.7,466.9z M446.3,456.7c-7.6,0-13.7-6.1-13.7-13.7s6.1-13.7,13.7-13.7
		S460,435.4,460,443C460,450.5,453.9,456.7,446.3,456.7z"/>
	<path class="st1" d="M84.6,445.6l4.5,0.6c0.2-1.1,0.2-2.2,0.2-3.3c-0.1-1.1,0-2.2-0.2-3.3l-4.5,0.6c-0.1-0.5-0.1-1.1-0.3-1.6
		l-0.4-1.6l4.3-1.3c-0.1-0.5-0.4-1-0.5-1.6c-0.2-0.5-0.4-1-0.6-1.5c-0.5-1-0.9-2-1.6-2.9l-3.1,1.9c-0.3,0.1-0.6,0.3-0.8,0.5
		c-0.3-0.5-0.5-0.9-0.9-1.3c-0.3-0.4-0.6-0.9-1-1.3l3.4-2.9c-0.7-0.8-1.5-1.6-2.3-2.3c-0.8-0.8-1.7-1.4-2.6-2.1l-2.6,3.7
		c-0.9-0.6-1.8-1.2-2.8-1.6l2-4.1c-1-0.5-2-0.9-3-1.2c-0.5-0.2-1.1-0.3-1.6-0.4s-1.1-0.3-1.6-0.4l-0.8,4.5l-1.6-0.2l-1.6-0.1
		l0.1-4.5c-1.1-0.1-2.2,0.1-3.3,0.1c-1.1,0.2-2.2,0.3-3.3,0.6l1.1,4.4c-0.5,0.1-1,0.2-1.5,0.4l-1.5,0.6l-1.7-4.2
		c-0.5,0.2-1,0.5-1.5,0.7s-1,0.5-1.5,0.8l-1.4,0.9c-0.5,0.3-0.9,0.7-1.3,1l2.8,3.6c-0.4,0.3-0.8,0.7-1.2,1c-0.4,0.4-0.8,0.7-1.2,1.1
		l-3.3-3.1l-1.1,1.2c-0.3,0.4-0.7,0.9-1,1.3c-0.7,0.9-1.2,1.9-1.8,2.8l4,2.2c-0.5,1-1,1.9-1.3,2.9l-4.3-1.5c-0.4,1-0.6,2.1-0.9,3.2
		c-0.2,1.1-0.4,2.2-0.5,3.3l4.5,0.3l-0.1,1.6l0.1,1.6l-4.5,0.4c0.1,1.1,0.3,2.2,0.5,3.3c0.3,1.1,0.5,2.2,0.9,3.2l4.2-1.5l0,0
		c0.3,1,0.8,2,1.3,2.9l-4,2.2c0.6,0.9,1.1,1.9,1.8,2.8c0.3,0.4,0.7,0.9,1,1.3l1.1,1.2l3.3-3.1c0.3,0.4,0.8,0.7,1.2,1.1
		s0.8,0.7,1.2,1l-2.8,3.6c0.4,0.3,0.9,0.7,1.3,1l1.4,0.9c0.5,0.3,1,0.5,1.5,0.8c0.5,0.2,1,0.5,1.5,0.7l1.7-4.2l1.5,0.6
		c0.5,0.2,1,0.3,1.5,0.4l-1.1,4.4l0.8,0.2l0.8,0.1l1.6,0.2c1.1,0,2.2,0.2,3.3,0.1l-0.1-4.5l1.6-0.1l1.6-0.2l0.8,4.5
		c1.1-0.2,2.1-0.5,3.2-0.8c1-0.4,2.1-0.7,3.1-1.2l-2-4.1c0.9-0.4,1.7-0.9,2.6-1.5c0.3,0.3,0.6,0.6,0.9,0.9L78,464
		c0.9-0.7,1.8-1.3,2.6-2c0.8-0.7,1.6-1.5,2.3-2.4l-3.4-2.9c0.4-0.4,0.7-0.8,1-1.3c0.3-0.4,0.6-0.9,0.9-1.3l3.9,2.4
		c0.6-0.9,1.1-1.9,1.5-2.9c0.3-0.5,0.4-1,0.6-1.5s0.4-1,0.5-1.6l-4.3-1.3l0.4-1.6C84.4,446.7,84.5,446.2,84.6,445.6z M88,444.8
		L88,444.8L88,444.8L88,444.8z M88,441.1v0.2c-0.1-0.1-0.1-0.2-0.2-0.2H88z M41.2,436.2L41.2,436.2L41.2,436.2L41.2,436.2z
		 M73.3,465l0.1,0.1h-0.1V465z M60,419.4c-0.1,0-0.1,0-0.2,0.1l0,0L60,419.4z M63.5,466.9L63.5,466.9L63.5,466.9L63.5,466.9z
		 M64.2,456.7c-7.6,0-13.7-6.1-13.7-13.7s6.1-13.7,13.7-13.7s13.7,6.1,13.7,13.7S71.7,456.7,64.2,456.7z"/>
	<path class="st1" d="M53.2,402.3l2.7,0.4c0.1-0.7,0.1-1.3,0.1-2s0-1.3-0.1-2l-2.7,0.4c-0.1-0.3-0.1-0.6-0.2-1l-0.2-0.9l2.6-0.8
		c-0.1-0.3-0.2-0.6-0.3-0.9s-0.2-0.6-0.4-0.9c-0.3-0.6-0.6-1.2-0.9-1.8l-1.8,1.1c-0.2,0.1-0.3,0.2-0.5,0.3c-0.2-0.3-0.3-0.5-0.5-0.8
		s-0.4-0.5-0.6-0.8l2.1-1.8c-0.4-0.5-0.9-1-1.4-1.4c-0.5-0.5-1-0.8-1.6-1.2l-1.6,2.3c-0.5-0.3-1.1-0.7-1.7-1l1.2-2.5
		c-0.6-0.3-1.2-0.5-1.8-0.7c-0.3-0.1-0.6-0.2-1-0.3c-0.3-0.1-0.6-0.2-1-0.2l-0.5,2.7l-1-0.1l-1-0.1l0.1-2.7c-0.7,0-1.3,0-2,0.1
		s-1.3,0.2-2,0.4l0.6,2.7c-0.3,0.1-0.6,0.1-0.9,0.3l-0.9,0.3l-1-2.5c-0.3,0.1-0.6,0.3-0.9,0.4c-0.3,0.1-0.6,0.3-0.9,0.5l-0.9,0.5
		c-0.3,0.2-0.5,0.4-0.8,0.6l1.7,2.2c-0.3,0.2-0.5,0.4-0.7,0.6s-0.5,0.4-0.7,0.7l-2-1.9l-0.7,0.7c-0.2,0.3-0.4,0.5-0.6,0.8
		c-0.4,0.5-0.7,1.1-1.1,1.7l2.4,1.3c-0.3,0.6-0.6,1.2-0.8,1.8l-2.6-0.9c-0.3,0.6-0.4,1.3-0.5,1.9c-0.1,0.7-0.2,1.3-0.3,2l2.7,0.2v1
		v1l-2.7,0.2c0,0.7,0.2,1.3,0.3,2c0.2,0.6,0.3,1.3,0.6,1.9l2.6-0.9l0,0c0.2,0.6,0.5,1.2,0.8,1.8l-2.4,1.3c0.4,0.6,0.7,1.2,1.1,1.7
		c0.2,0.3,0.4,0.5,0.6,0.8l0.7,0.7l2-1.9c0.2,0.3,0.5,0.5,0.7,0.7s0.5,0.4,0.7,0.6l-1.7,2.2c0.3,0.2,0.5,0.4,0.8,0.6l0.8,0.5
		c0.3,0.2,0.6,0.3,0.9,0.5c0.3,0.1,0.6,0.3,0.9,0.4l1-2.5l0.9,0.3c0.3,0.1,0.6,0.2,0.9,0.3l-0.6,2.7l0.5,0.1l0.5,0.1l1,0.1
		c0.7,0,1.3,0.1,2,0.1l-0.1-2.7l1-0.1l1-0.1l0.5,2.7c0.7-0.1,1.3-0.3,1.9-0.5c0.6-0.2,1.3-0.4,1.9-0.8l-1.2-2.5
		c0.5-0.2,1-0.6,1.6-0.9c0.2,0.2,0.4,0.4,0.6,0.5l1.1,1.6c0.5-0.4,1.1-0.8,1.6-1.2c0.5-0.4,1-0.9,1.4-1.4l-2.1-1.8
		c0.2-0.2,0.4-0.5,0.6-0.8c0.2-0.3,0.4-0.5,0.5-0.8l2.3,1.4c0.4-0.6,0.7-1.2,0.9-1.8c0.2-0.3,0.3-0.6,0.4-0.9c0.1-0.3,0.2-0.6,0.3-1
		l-2.6-0.8l0.2-0.9C53.2,403,53.2,402.6,53.2,402.3z M55.4,401.8L55.4,401.8L55.4,401.8L55.4,401.8z M55.4,399.6v0.2l-0.1-0.1
		L55.4,399.6z M27,396.6L27,396.6L27,396.6L27,396.6z M46.4,414L46.4,414L46.4,414C46.4,414.1,46.4,414.1,46.4,414z M38.4,386.4
		C38.3,386.4,38.3,386.5,38.4,386.4L38.4,386.4L38.4,386.4z M40.5,415.2L40.5,415.2L40.5,415.2L40.5,415.2z M40.9,409
		c-4.6,0-8.3-3.7-8.3-8.3s3.7-8.3,8.3-8.3s8.3,3.7,8.3,8.3S45.5,409,40.9,409z"/>
	<path class="st1" d="M292.6,415.5l4.6,0.6c0.2-1.1,0.2-2.2,0.2-3.3c-0.1-1.1,0-2.2-0.2-3.4l-4.6,0.6c-0.1-0.5-0.1-1.1-0.3-1.6
		l-0.4-1.6l4.4-1.3c-0.1-0.5-0.4-1.1-0.5-1.6c-0.2-0.5-0.4-1.1-0.6-1.6c-0.5-1-1-2-1.6-3l-3.1,1.9c-0.3,0.2-0.6,0.3-0.8,0.5
		c-0.3-0.5-0.6-0.9-0.9-1.3s-0.6-0.9-1-1.3l3.5-3c-0.7-0.8-1.5-1.7-2.3-2.4c-0.8-0.8-1.7-1.4-2.6-2.1l-2.6,3.8
		c-0.9-0.6-1.8-1.2-2.8-1.6l2-4.2c-1-0.5-2.1-0.9-3.1-1.3c-0.5-0.2-1.1-0.3-1.6-0.5c-0.5-0.1-1.1-0.3-1.6-0.4l-0.8,4.5l-1.6-0.2
		l-1.6-0.1l0.1-4.6c-1.1-0.1-2.2,0.1-3.3,0.1c-1.1,0.2-2.2,0.3-3.3,0.6l1.1,4.5c-0.5,0.1-1.1,0.2-1.6,0.4l-1.5,0.6l-1.8-4.3
		c-0.5,0.2-1,0.5-1.5,0.7s-1,0.5-1.5,0.8l-1.4,0.9c-0.5,0.3-0.9,0.7-1.4,1l2.8,3.7c-0.5,0.3-0.9,0.7-1.3,1c-0.4,0.4-0.8,0.7-1.2,1.1
		l-3.3-3.2l-1.1,1.2c-0.4,0.4-0.7,0.9-1,1.3c-0.7,0.9-1.2,1.9-1.8,2.8l4.1,2.2c-0.5,1-1,2-1.3,3l-4.3-1.5c-0.4,1-0.6,2.1-0.9,3.2
		c-0.2,1.1-0.4,2.2-0.5,3.3l4.6,0.4l-0.1,1.6l0.1,1.6l-4.6,0.4c0.1,1.1,0.3,2.2,0.5,3.3c0.3,1.1,0.5,2.2,0.9,3.2l4.3-1.5l0,0
		c0.3,1,0.8,2,1.3,3l-4.1,2.2c0.6,0.9,1.1,1.9,1.8,2.8c0.3,0.4,0.7,0.9,1,1.3l1.1,1.2l3.3-3.2c0.3,0.4,0.8,0.8,1.2,1.1
		c0.4,0.4,0.8,0.7,1.3,1l-2.8,3.7c0.4,0.3,0.9,0.7,1.3,1l1.4,0.9c0.5,0.3,1,0.5,1.5,0.8c0.5,0.2,1,0.5,1.5,0.7l1.8-4.3l1.5,0.6
		c0.5,0.2,1.1,0.3,1.6,0.4l-1.1,4.5l0.8,0.2l0.8,0.1l1.7,0.2c1.1,0,2.2,0.2,3.4,0.1l-0.1-4.6l1.6-0.1l1.6-0.2l0.8,4.5
		c1.1-0.2,2.2-0.5,3.2-0.8c1.1-0.4,2.1-0.7,3.1-1.3l-2-4.2c0.9-0.4,1.8-0.9,2.6-1.5c0.3,0.3,0.6,0.6,1,0.9l1.9,2.7
		c0.9-0.7,1.8-1.3,2.6-2.1c0.9-0.7,1.6-1.6,2.4-2.4l-3.5-3c0.4-0.4,0.7-0.9,1-1.3s0.6-0.9,0.9-1.4l3.9,2.4c0.6-0.9,1.1-1.9,1.6-3
		c0.3-0.5,0.4-1,0.6-1.6c0.2-0.5,0.4-1,0.5-1.6l-4.4-1.3l0.4-1.6C292.5,416.6,292.5,416,292.6,415.5z M296.2,414.7L296.2,414.7
		C296.2,414.6,296.2,414.6,296.2,414.7L296.2,414.7z M296.2,410.8v0.3c-0.1-0.1-0.1-0.2-0.2-0.2L296.2,410.8z M248.5,405.8
		L248.5,405.8L248.5,405.8L248.5,405.8z M281.2,435.2l0.1,0.1h-0.1C281.1,435.3,281.1,435.2,281.2,435.2z M267.6,388.7
		c-0.1,0-0.1,0-0.2,0.1l0,0L267.6,388.7z M271.2,437.1L271.2,437.1L271.2,437.1L271.2,437.1z M271.9,426.7c-7.7,0-14-6.3-14-14
		s6.3-14,14-14s14,6.3,14,14C285.8,420.5,279.6,426.7,271.9,426.7z"/>
	<path class="st1" d="M450.6,210.9l2.3,0.3c0.1-0.6,0.1-1.1,0.1-1.7c0-0.6,0-1.1-0.1-1.7l-2.3,0.3c0-0.3-0.1-0.5-0.1-0.8l-0.2-0.8
		l2.2-0.7c-0.1-0.3-0.2-0.5-0.3-0.8c-0.1-0.3-0.2-0.5-0.3-0.8c-0.2-0.5-0.5-1-0.8-1.5l-1.6,1c-0.1,0.1-0.3,0.2-0.4,0.2
		c-0.1-0.2-0.3-0.5-0.4-0.7c-0.2-0.2-0.3-0.4-0.5-0.6l1.8-1.5c-0.4-0.4-0.7-0.8-1.2-1.2c-0.4-0.4-0.9-0.7-1.3-1l-1.3,1.9
		c-0.5-0.3-0.9-0.6-1.4-0.8l1-2.1c-0.5-0.3-1-0.4-1.6-0.6c-0.3-0.1-0.5-0.2-0.8-0.2c-0.3-0.1-0.5-0.2-0.8-0.2l-0.4,2.3l-0.8-0.1
		h-0.8l0.1-2.3c-0.6,0-1.1,0-1.7,0.1s-1.1,0.1-1.7,0.3l0.5,2.2c-0.3,0.1-0.5,0.1-0.8,0.2l-0.8,0.3l-0.9-2.1
		c-0.3,0.1-0.5,0.2-0.8,0.4c-0.3,0.1-0.5,0.2-0.7,0.4l-0.7,0.4c-0.2,0.2-0.5,0.3-0.7,0.5l1.4,1.8c-0.2,0.2-0.4,0.3-0.6,0.5
		s-0.4,0.4-0.6,0.6l-1.7-1.6l-0.6,0.6c-0.2,0.2-0.3,0.4-0.5,0.7c-0.4,0.4-0.6,0.9-0.9,1.4l2,1.1c-0.2,0.5-0.5,1-0.7,1.5l-2.2-0.8
		c-0.2,0.5-0.3,1.1-0.5,1.6c-0.1,0.6-0.2,1.1-0.2,1.7l2.3,0.2v0.8v0.8l-2.3,0.2c0,0.6,0.1,1.1,0.2,1.7c0.1,0.5,0.3,1.1,0.5,1.6
		l2.2-0.8l0,0c0.2,0.5,0.4,1,0.6,1.5l-2,1.1c0.3,0.5,0.6,1,0.9,1.4c0.2,0.2,0.3,0.5,0.5,0.7l0.6,0.6l1.7-1.6
		c0.2,0.2,0.4,0.4,0.6,0.6c0.2,0.2,0.4,0.4,0.6,0.5l-1.4,1.8c0.2,0.2,0.4,0.3,0.7,0.5l0.7,0.4c0.2,0.2,0.5,0.3,0.7,0.4
		c0.3,0.1,0.5,0.3,0.8,0.4l0.9-2.1l0.8,0.3c0.3,0.1,0.5,0.1,0.8,0.2l-0.5,2.2l0.4,0.1l0.4,0.1l0.8,0.1c0.6,0,1.1,0.1,1.7,0.1
		l-0.1-2.3h0.8l0.8-0.1l0.4,2.3c0.5-0.1,1.1-0.2,1.6-0.4s1.1-0.4,1.6-0.6l-1-2.1c0.5-0.2,0.9-0.5,1.3-0.7c0.1,0.2,0.3,0.3,0.5,0.5
		l0.9,1.4c0.4-0.3,0.9-0.7,1.3-1c0.4-0.4,0.8-0.8,1.2-1.2l-1.8-1.5c0.2-0.2,0.3-0.4,0.5-0.6c0.2-0.2,0.3-0.4,0.5-0.7l2,1.2
		c0.3-0.5,0.5-1,0.8-1.5c0.1-0.2,0.2-0.5,0.3-0.8c0.1-0.3,0.2-0.5,0.3-0.8l-2.2-0.7l0.2-0.8C450.5,211.4,450.5,211.2,450.6,210.9z
		 M452.3,210.5L452.3,210.5L452.3,210.5L452.3,210.5z M452.3,208.6v0.1l-0.1-0.1H452.3z M428.5,206.1L428.5,206.1L428.5,206.1
		L428.5,206.1z M444.8,220.7L444.8,220.7L444.8,220.7C444.8,220.8,444.8,220.8,444.8,220.7z M438,197.5L438,197.5L438,197.5
		L438,197.5z M439.9,221.7L439.9,221.7L439.9,221.7L439.9,221.7z M440.2,216.5c-3.9,0-7-3.1-7-7s3.1-7,7-7s7,3.1,7,7
		S444,216.5,440.2,216.5z"/>
	<path class="st1" d="M371.5,56.2l2.3,0.3c0.1-0.6,0.1-1.1,0.1-1.7c0-0.6,0-1.1-0.1-1.7l-2.3,0.3c0-0.3-0.1-0.5-0.1-0.8l-0.2-0.8
		l2.2-0.7c-0.1-0.3-0.2-0.5-0.3-0.8c-0.1-0.3-0.2-0.5-0.3-0.8c-0.2-0.5-0.5-1-0.8-1.5l-1.6,1c-0.1,0.1-0.3,0.2-0.4,0.2
		c-0.1-0.2-0.3-0.5-0.4-0.7c-0.2-0.2-0.3-0.4-0.5-0.6l1.8-1.5c-0.4-0.4-0.7-0.8-1.2-1.2c-0.4-0.4-0.9-0.7-1.3-1l-1.3,1.9
		c-0.5-0.3-0.9-0.6-1.4-0.8l1-2.1c-0.5-0.3-1-0.4-1.6-0.6c-0.3-0.1-0.5-0.2-0.8-0.2c-0.3-0.1-0.5-0.2-0.8-0.2l-0.4,2.3l-0.8-0.1
		h-0.8l0.1-2.3c-0.6,0-1.1,0-1.7,0.1s-1.1,0.1-1.7,0.3l0.5,2.2c-0.3,0.1-0.5,0.1-0.8,0.2l-0.8,0.3l-0.9-2.1
		c-0.3,0.1-0.5,0.2-0.8,0.4c-0.3,0.1-0.5,0.2-0.7,0.4l-0.7,0.4c-0.2,0.2-0.5,0.3-0.7,0.5l1.4,1.8c-0.2,0.2-0.4,0.3-0.6,0.5
		s-0.4,0.4-0.6,0.6l-1.7-1.6l-0.6,0.6c-0.2,0.2-0.3,0.4-0.5,0.7c-0.4,0.4-0.6,0.9-0.9,1.4l2,1.1c-0.2,0.5-0.5,1-0.7,1.5l-2.2-0.8
		c-0.2,0.5-0.3,1.1-0.5,1.6c-0.1,0.6-0.2,1.1-0.2,1.7l2.3,0.2v0.8v0.8l-2.3,0.2c0,0.6,0.1,1.1,0.2,1.7c0.1,0.5,0.3,1.1,0.5,1.6
		l2.2-0.8l0,0c0.2,0.5,0.4,1,0.6,1.5l-2,1.1c0.3,0.5,0.6,1,0.9,1.4c0.2,0.2,0.3,0.5,0.5,0.7l0.6,0.6l1.7-1.6
		c0.2,0.2,0.4,0.4,0.6,0.6c0.2,0.2,0.4,0.4,0.6,0.5l-1.4,1.8c0.2,0.2,0.4,0.3,0.7,0.5l0.7,0.4c0.2,0.2,0.5,0.3,0.7,0.4
		c0.3,0.1,0.5,0.3,0.8,0.4l0.9-2.1l0.8,0.3c0.3,0.1,0.5,0.1,0.8,0.2l-0.5,2.2l0.4,0.1l0.4,0.1l0.8,0.1c0.6,0,1.1,0.1,1.7,0.1
		l-0.1-2.3h0.8l0.8-0.1l0.4,2.3c0.5-0.1,1.1-0.2,1.6-0.4c0.5-0.2,1.1-0.4,1.6-0.6l-1-2.1c0.5-0.2,0.9-0.5,1.3-0.7
		c0.1,0.2,0.3,0.3,0.5,0.5l0.9,1.4c0.4-0.3,0.9-0.7,1.3-1c0.4-0.4,0.8-0.8,1.2-1.2l-1.8-1.5c0.2-0.2,0.3-0.4,0.5-0.6
		c0.2-0.2,0.3-0.4,0.5-0.7l2,1.2c0.3-0.5,0.5-1,0.8-1.5c0.1-0.2,0.2-0.5,0.3-0.8c0.1-0.3,0.2-0.5,0.3-0.8l-2.2-0.7l0.2-0.8
		C371.4,56.7,371.4,56.5,371.5,56.2z M373.3,55.8L373.3,55.8L373.3,55.8L373.3,55.8z M373.3,53.9L373.3,53.9h-0.1H373.3z
		 M349.4,51.4L349.4,51.4L349.4,51.4L349.4,51.4z M365.8,66L365.8,66L365.8,66C365.7,66.1,365.7,66.1,365.8,66z M359,42.8
		C358.9,42.8,358.9,42.9,359,42.8L359,42.8L359,42.8z M360.8,67L360.8,67L360.8,67L360.8,67z M361.1,61.8c-3.9,0-7-3.1-7-7
		s3.1-7,7-7s7,3.1,7,7S365,61.8,361.1,61.8z"/>
	<path class="st1" d="M250.7,114.4l2.3,0.3c0.1-0.6,0.1-1.1,0.1-1.7s0-1.1-0.1-1.7l-2.3,0.3c0-0.3-0.1-0.5-0.1-0.8l-0.2-0.8l2.2-0.7
		c-0.1-0.3-0.2-0.5-0.3-0.8s-0.2-0.5-0.3-0.8c-0.2-0.5-0.5-1-0.8-1.5l-1.6,1c-0.1,0.1-0.3,0.2-0.4,0.2c-0.1-0.2-0.3-0.5-0.4-0.7
		c-0.2-0.2-0.3-0.4-0.5-0.6l1.8-1.5c-0.4-0.4-0.7-0.8-1.2-1.2c-0.4-0.4-0.9-0.7-1.3-1l-1.3,1.9c-0.5-0.3-0.9-0.6-1.4-0.8l1-2.1
		c-0.5-0.3-1-0.4-1.6-0.6c-0.3-0.1-0.5-0.2-0.8-0.2c-0.3-0.1-0.5-0.2-0.8-0.2l-0.4,2.3l-0.8-0.1h-0.8l0.1-2.3c-0.6,0-1.1,0-1.7,0.1
		c-0.6,0.1-1.1,0.1-1.7,0.3l0.5,2.2c-0.3,0.1-0.5,0.1-0.8,0.2l-0.8,0.3l-0.9-2.1c-0.3,0.1-0.5,0.2-0.8,0.4c-0.3,0.1-0.5,0.2-0.7,0.4
		l-0.7,0.4c-0.2,0.2-0.5,0.3-0.7,0.5l1.4,1.8c-0.2,0.2-0.4,0.3-0.6,0.5c-0.2,0.2-0.4,0.4-0.6,0.6l-1.7-1.6l-0.6,0.6
		c-0.2,0.2-0.3,0.4-0.5,0.7c-0.4,0.4-0.6,0.9-0.9,1.4l2,1.1c-0.2,0.5-0.5,1-0.7,1.5l-2.2-0.8c-0.2,0.5-0.3,1.1-0.5,1.6
		c-0.1,0.6-0.2,1.1-0.2,1.7l2.3,0.2v0.8v0.8l-2.3,0.2c0,0.6,0.1,1.1,0.2,1.7c0.1,0.5,0.3,1.1,0.5,1.6l2.2-0.8l0,0
		c0.2,0.5,0.4,1,0.6,1.5l-2,1.1c0.3,0.5,0.6,1,0.9,1.4c0.2,0.2,0.3,0.5,0.5,0.7l0.6,0.6l1.7-1.6c0.2,0.2,0.4,0.4,0.6,0.6
		c0.2,0.2,0.4,0.4,0.6,0.5l-1.4,1.8c0.2,0.2,0.4,0.3,0.7,0.5l0.7,0.4c0.2,0.2,0.5,0.3,0.7,0.4c0.3,0.1,0.5,0.3,0.8,0.4l0.9-2.1
		l0.8,0.3c0.3,0.1,0.5,0.1,0.8,0.2l-0.5,2.2l0.4,0.1l0.4,0.1l0.8,0.1c0.6,0,1.1,0.1,1.7,0.1l-0.1-2.3h0.8l0.8-0.1l0.4,2.3
		c0.5-0.1,1.1-0.2,1.6-0.4c0.5-0.2,1.1-0.4,1.6-0.6l-1-2.1c0.5-0.2,0.9-0.5,1.3-0.7c0.1,0.2,0.3,0.3,0.5,0.5l0.9,1.4
		c0.4-0.3,0.9-0.7,1.3-1c0.4-0.4,0.8-0.8,1.2-1.2l-1.8-1.5c0.2-0.2,0.3-0.4,0.5-0.6s0.3-0.4,0.5-0.7l2,1.2c0.3-0.5,0.5-1,0.8-1.5
		c0.1-0.2,0.2-0.5,0.3-0.8s0.2-0.5,0.3-0.8l-2.2-0.7l0.2-0.8C250.6,115,250.6,114.7,250.7,114.4z M252.4,114L252.4,114L252.4,114
		L252.4,114z M252.4,112.1L252.4,112.1h-0.1H252.4z M228.6,109.6L228.6,109.6L228.6,109.6L228.6,109.6z M244.9,124.3L244.9,124.3
		L244.9,124.3L244.9,124.3z M238.1,101C238.1,101.1,238.1,101.1,238.1,101L238.1,101L238.1,101z M240,125.2L240,125.2L240,125.2
		L240,125.2z M240.3,120c-3.9,0-7-3.1-7-7s3.1-7,7-7s7,3.1,7,7S244.1,120,240.3,120z"/>
	<path class="st1" d="M468.6,258.5l3.5,0.5c0.1-0.8,0.1-1.7,0.2-2.5c-0.1-0.8,0-1.7-0.2-2.5l-3.5,0.5c-0.1-0.4-0.1-0.8-0.2-1.2
		l-0.3-1.2l3.3-1c-0.1-0.4-0.3-0.8-0.4-1.2c-0.2-0.4-0.3-0.8-0.5-1.2c-0.4-0.8-0.7-1.5-1.2-2.3l-2.4,1.4c-0.2,0.1-0.4,0.2-0.6,0.4
		c-0.2-0.4-0.4-0.7-0.7-1c-0.3-0.3-0.5-0.7-0.8-1l2.7-2.3c-0.6-0.6-1.1-1.3-1.8-1.8c-0.6-0.6-1.3-1.1-2-1.6l-2,2.9
		c-0.7-0.4-1.4-0.9-2.1-1.2l1.5-3.1c-0.7-0.4-1.6-0.7-2.3-0.9c-0.4-0.1-0.8-0.2-1.2-0.3c-0.4-0.1-0.8-0.2-1.2-0.3l-0.6,3.4l-1.2-0.2
		l-1.2-0.1l0.1-3.5c-0.8-0.1-1.7,0-2.5,0.1s-1.7,0.2-2.5,0.4l0.8,3.4c-0.4,0.1-0.8,0.2-1.2,0.3l-1.2,0.4l-1.3-3.2
		c-0.4,0.2-0.8,0.4-1.1,0.5c-0.4,0.2-0.8,0.4-1.1,0.6l-1.1,0.7c-0.3,0.2-0.7,0.5-1,0.8l2.1,2.8c-0.3,0.2-0.6,0.5-0.9,0.8
		s-0.6,0.5-0.9,0.9l-2.5-2.4l-0.9,0.9c-0.3,0.3-0.5,0.7-0.8,1c-0.5,0.7-0.9,1.4-1.4,2.1l3.1,1.7c-0.4,0.7-0.7,1.5-1,2.3l-3.3-1.2
		c-0.3,0.8-0.5,1.6-0.7,2.4c-0.1,0.8-0.3,1.7-0.4,2.5l3.5,0.3l-0.1,1.2l0.1,1.2l-3.5,0.3c0,0.8,0.2,1.7,0.4,2.5
		c0.2,0.8,0.4,1.7,0.7,2.5l3.3-1.2l0,0c0.3,0.8,0.6,1.5,1,2.2l-3.1,1.7c0.5,0.7,0.8,1.5,1.4,2.1c0.3,0.3,0.5,0.7,0.8,1l0.9,0.9
		l2.5-2.4c0.3,0.3,0.6,0.6,0.9,0.9s0.6,0.6,0.9,0.8l-2.1,2.8c0.3,0.3,0.7,0.5,1,0.8l1.1,0.7c0.4,0.2,0.7,0.4,1.1,0.6
		s0.8,0.4,1.2,0.5l1.3-3.2l1.2,0.4c0.4,0.1,0.8,0.2,1.2,0.3l-0.8,3.4l0.6,0.2l0.6,0.1l1.3,0.2c0.8,0,1.7,0.1,2.5,0.1l-0.1-3.5
		l1.2-0.1l1.2-0.2l0.6,3.4c0.8-0.1,1.6-0.4,2.5-0.6c0.8-0.3,1.6-0.6,2.4-1l-1.5-3.1c0.7-0.3,1.3-0.7,2-1.1c0.2,0.2,0.5,0.5,0.7,0.7
		l1.4,2.1c0.7-0.5,1.4-1,2-1.6s1.2-1.2,1.8-1.8l-2.7-2.3c0.3-0.3,0.5-0.7,0.8-1s0.5-0.7,0.7-1l3,1.8c0.5-0.7,0.8-1.5,1.2-2.2
		c0.2-0.4,0.3-0.8,0.5-1.2c0.1-0.4,0.3-0.8,0.4-1.2l-3.3-1l0.3-1.2C468.5,259.3,468.6,258.9,468.6,258.5z M471.3,257.8L471.3,257.8
		L471.3,257.8L471.3,257.8z M471.3,254.9v0.2c-0.1-0.1-0.1-0.1-0.2-0.2H471.3z M435.2,251.2L435.2,251.2L435.2,251.2L435.2,251.2z
		 M460,273.4L460,273.4v0.1C459.9,273.4,460,273.4,460,273.4z M449.7,238.2h-0.1l0,0H449.7z M452.5,274.8L452.5,274.8
		C452.4,274.8,452.4,274.8,452.5,274.8L452.5,274.8z M452.9,267c-5.8,0-10.6-4.7-10.6-10.6c0-5.8,4.7-10.6,10.6-10.6
		s10.6,4.7,10.6,10.6C463.5,262.2,458.8,267,452.9,267z"/>
	<path class="st1" d="M60.7,239.1l3.5,0.5c0.1-0.8,0.1-1.7,0.2-2.5c-0.1-0.8,0-1.7-0.2-2.5l-3.5,0.5c-0.1-0.4-0.1-0.8-0.2-1.2
		l-0.3-1.2l3.3-1c-0.1-0.4-0.3-0.8-0.4-1.2c-0.2-0.4-0.3-0.8-0.5-1.2c-0.4-0.8-0.7-1.5-1.2-2.3l-2.4,1.4c-0.2,0.1-0.4,0.2-0.6,0.4
		c-0.2-0.4-0.4-0.7-0.7-1s-0.5-0.7-0.8-1l2.7-2.3c-0.6-0.6-1.1-1.3-1.8-1.8c-0.6-0.6-1.3-1.1-2-1.6l-2,2.9c-0.7-0.4-1.4-0.9-2.1-1.2
		l1.5-3.1c-0.7-0.4-1.6-0.7-2.3-0.9c-0.4-0.1-0.8-0.2-1.2-0.3s-0.8-0.2-1.2-0.3l-0.6,3.4l-1.2-0.2l-1.2-0.1l0.1-3.5
		c-0.8-0.1-1.7,0-2.5,0.1s-1.7,0.2-2.5,0.4l0.8,3.4c-0.4,0.1-0.8,0.2-1.2,0.3l-1.2,0.4l-1.3-3.2c-0.4,0.2-0.8,0.4-1.1,0.5
		c-0.4,0.2-0.8,0.4-1.1,0.6l-1.1,0.7c-0.3,0.2-0.7,0.5-1,0.8l2.1,2.8c-0.3,0.2-0.6,0.5-0.9,0.8c-0.3,0.3-0.6,0.5-0.9,0.9l-2.5-2.4
		l-0.9,0.9c-0.3,0.3-0.5,0.7-0.8,1c-0.5,0.7-0.9,1.4-1.4,2.1l3.1,1.7c-0.4,0.7-0.7,1.5-1,2.3l-3.3-1.2c-0.3,0.8-0.5,1.6-0.7,2.4
		c-0.1,0.8-0.3,1.7-0.4,2.5l3.5,0.3l-0.1,1.2l0.1,1.2l-3.5,0.3c0,0.8,0.2,1.7,0.4,2.5c0.2,0.8,0.4,1.7,0.7,2.5l3.3-1.2l0,0
		c0.3,0.8,0.6,1.5,1,2.2l-3.1,1.7c0.5,0.7,0.8,1.5,1.4,2.1c0.3,0.3,0.5,0.7,0.8,1l0.9,0.9l2.5-2.4c0.3,0.3,0.6,0.6,0.9,0.9
		c0.3,0.3,0.6,0.6,0.9,0.8l-2.1,2.8c0.3,0.3,0.7,0.5,1,0.8l1.1,0.7c0.4,0.2,0.7,0.4,1.1,0.6c0.4,0.2,0.8,0.4,1.2,0.5l1.3-3.2
		l1.2,0.4c0.4,0.1,0.8,0.2,1.2,0.3l-0.8,3.4l0.6,0.2l0.6,0.1l1.3,0.2c0.8,0,1.7,0.1,2.5,0.1l-0.1-3.5l1.2-0.1l1.2-0.2l0.6,3.4
		c0.8-0.1,1.6-0.4,2.5-0.6c0.8-0.3,1.6-0.6,2.4-1l-1.5-3.1c0.7-0.3,1.3-0.7,2-1.1c0.2,0.2,0.5,0.5,0.7,0.7l1.3,2
		c0.7-0.5,1.4-1,2-1.6s1.2-1.2,1.8-1.8l-2.7-2.3c0.3-0.3,0.5-0.7,0.8-1s0.5-0.7,0.7-1l3,1.8c0.5-0.7,0.8-1.5,1.2-2.2
		c0.2-0.4,0.3-0.8,0.5-1.2c0.1-0.4,0.3-0.8,0.4-1.2l-3.3-1l0.3-1.2C60.6,239.9,60.7,239.5,60.7,239.1z M63.4,238.5L63.4,238.5
		L63.4,238.5L63.4,238.5z M63.4,235.6v0.2c-0.1-0.1-0.1-0.1-0.2-0.2H63.4z M27.3,231.8L27.3,231.8L27.3,231.8L27.3,231.8z M52.1,254
		L52.1,254v0.1C52,254.1,52.1,254.1,52.1,254z M41.8,218.9L41.8,218.9L41.8,218.9L41.8,218.9z M44.6,255.5L44.6,255.5
		C44.5,255.5,44.6,255.5,44.6,255.5L44.6,255.5z M45,247.6c-5.8,0-10.6-4.7-10.6-10.6s4.7-10.6,10.6-10.6s10.6,4.7,10.6,10.6
		C55.6,242.9,50.9,247.6,45,247.6z"/>
</g>
<g id="OBJECTS">
	<line class="st2" x1="221.5" y1="38.6" x2="221.5" y2="0"/>
	<line class="st2" x1="223.2" y1="38.6" x2="223.2" y2="0"/>
	<line class="st2" x1="238.4" y1="38.6" x2="238.4" y2="0"/>
	<line class="st2" x1="240.1" y1="38.6" x2="240.1" y2="0"/>
	<polyline class="st3" points="57.9,173.2 232.2,87.9 400.1,156.7 	"/>
	<path class="st4" d="M410.8,409.6l-340.9,15c-2.3,0.1-4.6-10-5.1-22.5l0,0c-0.6-12.5,0.8-22.7,3.1-22.8l340.9-15.1
		c2.3-0.1,4.6,10,5.1,22.5l0,0C414.5,399.2,413.1,409.5,410.8,409.6z"/>
	<g>
		<g>
			<path class="st5" d="M411,406.1L69.5,421.5c-2.2,0.1-4.1-1.6-4.2-3.8l-10-235.2l349.4-15.7L414.8,402
				C414.9,404.2,413.2,406,411,406.1z"/>
			<path class="st6" d="M400.1,154.4L58.7,169.7c-2.2,0.1-3.9,2-3.8,4.2l0.4,8.6l349.4-15.7l-0.4-8.6
				C404.2,156,402.3,154.3,400.1,154.4z"/>
			
				<rect x="55.4" y="174.6" transform="matrix(0.999 -4.489924e-02 4.489924e-02 0.999 -7.89 10.5228)" class="st7" width="349.8" height="12.6"/>
			<path class="st8" d="M64.5,175.8c0.1,1.3-0.9,2.4-2.2,2.4c-1.3,0.1-2.4-0.9-2.4-2.2c-0.1-1.3,0.9-2.4,2.2-2.4
				C63.4,173.5,64.5,174.5,64.5,175.8z"/>
			<path class="st9" d="M71.9,175.4c0.1,1.3-0.9,2.4-2.2,2.4c-1.3,0.1-2.4-0.9-2.4-2.2c-0.1-1.3,0.9-2.4,2.2-2.4
				C70.7,173.2,71.8,174.2,71.9,175.4z"/>
			<path class="st10" d="M79.2,175.1c0.1,1.3-0.9,2.4-2.2,2.4c-1.3,0.1-2.4-0.9-2.4-2.2c-0.1-1.3,0.9-2.4,2.2-2.4
				C78.1,172.8,79.2,173.8,79.2,175.1z"/>
			<g>
				<g>
					<line class="st11" x1="65.7" y1="189" x2="61.1" y2="189.2"/>
					<g>
						<polygon class="st12" points="62.8,186.9 63.2,187.3 61.3,189.2 63.4,191 63,191.4 60.5,189.3 						"/>
					</g>
				</g>
			</g>
			<g>
				<g>
					<line class="st11" x1="68" y1="188.9" x2="72.6" y2="188.7"/>
					<g>
						<polygon class="st12" points="70.9,191 70.5,190.7 72.4,188.7 70.4,187 70.7,186.6 73.2,188.7 						"/>
					</g>
				</g>
			</g>
			<g>
				<g>
					<path class="st11" d="M81.6,188.3c0.1,1.4-1,2.5-2.4,2.6s-2.5-1-2.6-2.4s1-2.5,2.4-2.6c0,0,0.8-0.3,2.1,1"/>
					<g>
						<polygon class="st12" points="79.7,186.8 81,186.9 81.1,185.6 81.6,186.2 81.5,187.5 80.2,187.4 						"/>
					</g>
				</g>
			</g>
			
				<rect x="88.5" y="176.8" transform="matrix(0.999 -4.489924e-02 4.489924e-02 0.999 -7.8628 10.9377)" class="st5" width="302.1" height="7.4"/>
		</g>
		<g>
			
				<rect x="55.8" y="346.2" transform="matrix(0.999 -4.489924e-02 4.489924e-02 0.999 -16.1369 11.0629)" class="st9" width="364.8" height="37.1"/>
			<polygon class="st13" points="62.6,354.1 62.4,349.3 55.1,354.4 			"/>
			<polygon class="st13" points="419.5,338.1 412,338.4 411.8,333.6 			"/>
			<polygon class="st14" points="76.9,390.6 60.5,391.3 72.4,353.6 88.7,352.9 			"/>
			<polygon class="st14" points="109.5,389.1 93.2,389.9 105,352.2 121.3,351.4 			"/>
			<polygon class="st14" points="142.1,387.7 125.8,388.4 137.7,350.7 154,350 			"/>
			<polygon class="st14" points="174.8,386.2 158.5,386.9 170.3,349.2 186.6,348.5 			"/>
			<polygon class="st14" points="207.4,384.7 191.1,385.5 203,347.8 219.3,347 			"/>
			<polygon class="st14" points="240.1,383.3 223.8,384 235.6,346.3 251.9,345.6 			"/>
			<polygon class="st14" points="272.7,381.8 256.4,382.5 268.2,344.8 284.6,344.1 			"/>
			<polygon class="st14" points="305.4,380.3 289.1,381.1 300.9,343.4 317.2,342.7 			"/>
			<polygon class="st14" points="338,378.9 321.7,379.6 333.5,341.9 349.9,341.2 			"/>
			<polygon class="st14" points="370.7,377.4 354.4,378.1 366.2,340.5 382.5,339.7 			"/>
			<polygon class="st14" points="403.3,375.9 387,376.7 398.8,339 415.2,338.3 			"/>
		</g>
		<text transform="matrix(0.8402 -4.481299e-02 3.768024e-02 0.9993 140.6536 238.9342)" class="st14 st15 st16">PERDONA,</text>
		<text transform="matrix(0.8402 -4.481299e-02 3.768024e-02 0.9993 138.3428 284.8175)" class="st9 st15 st16">PÁGINA EN</text>
		<text transform="matrix(0.8402 -4.481299e-02 3.768024e-02 0.9993 95.1978 332.8777)" class="st9 st15 st16">CONSTRUCCIÓN</text>
	</g>
	<g>
		<ellipse class="st4" cx="440.2" cy="484.7" rx="36.3" ry="4.6"/>
		<polygon class="st17" points="415.5,480.2 464.9,480.2 443.6,412.8 436.8,412.8 		"/>
		<rect x="412.8" y="480.2" class="st18" width="54.9" height="4.4"/>
		<polygon class="st19" points="464.9,480.2 415.5,480.2 420.1,465.6 460.3,465.6 		"/>
	</g>
	<g>
		<path class="st20" d="M227.7,88.2c-0.6-0.9-0.9-2.1-0.9-3.7c0-5,4.1-5.8,4.6-5.9l1.4-0.2v-7.1c0-0.9-0.7-1.6-1.6-1.6
			s-1.6,0.7-1.6,1.6v4.4c-2.6,0.9-5.9,3.5-5.9,8.8c0,2.3,0.5,4,1.2,5.2L227.7,88.2z"/>
		<path class="st20" d="M234.4,90c0-0.3-0.2-0.6-0.3-0.9c-0.4-0.8-0.9-1.4-1.5-2c-0.1,0.8-0.4,1.5-0.8,2.2c-0.2,0.4-0.5,0.8-0.8,1.1
			c-0.2,0.1-2.7,1.3-3.7,1.8c0.9,0.5,1.9,0.7,2.9,0.7c1.1,0,2.3-0.3,3.4-0.8c0.5-0.3,0.9-0.9,0.9-1.5
			C234.4,90.5,234.4,90.2,234.4,90z"/>
	</g>
	<polygon class="st9" points="234.3,71.3 227.3,71.3 221.8,52.8 239.8,52.8 	"/>
	<ellipse transform="matrix(0.2307 -0.973 0.973 0.2307 139.9522 254.2706)" class="st21" cx="230.8" cy="38.6" rx="9.9" ry="9.9"/>
	<path class="st20" d="M237.8,38.6c0,3.9-3.1,7-7,7s-7-3.1-7-7s3.1-7,7-7C234.7,31.6,237.8,34.7,237.8,38.6z"/>
	<rect x="221.8" y="44.3" class="st14" width="18" height="8.6"/>
</g>
</svg>
