<svg width="22" height="18" viewBox="0 0 22 18" fill="none" xmlns="http://www.w3.org/2000/svg">
<path d="M15.2401 4.75993C15.7979 5.31717 16.2405 5.9789 16.5424 6.70729C16.8444 7.43568 16.9998 8.21644 16.9998 9.00493C16.9998 9.79342 16.8444 10.5742 16.5424 11.3026C16.2405 12.031 15.7979 12.6927 15.2401 13.2499M6.76006 13.2399C6.2022 12.6827 5.75965 12.021 5.4577 11.2926C5.15576 10.5642 5.00034 9.78342 5.00034 8.99493C5.00034 8.20644 5.15576 7.42568 5.4577 6.69729C5.75965 5.9689 6.2022 5.30717 6.76006 4.74993M18.0701 1.92993C19.9448 3.80521 20.9979 6.34829 20.9979 8.99993C20.9979 11.6516 19.9448 14.1947 18.0701 16.0699M3.93006 16.0699C2.05535 14.1947 1.0022 11.6516 1.0022 8.99993C1.0022 6.34829 2.05535 3.80521 3.93006 1.92993M13.0001 8.99993C13.0001 10.1045 12.1046 10.9999 11.0001 10.9999C9.89549 10.9999 9.00006 10.1045 9.00006 8.99993C9.00006 7.89536 9.89549 6.99993 11.0001 6.99993C12.1046 6.99993 13.0001 7.89536 13.0001 8.99993Z" stroke="white" stroke-width="2" stroke-linecap="round" stroke-linejoin="round"/>
</svg>
